<svg width="190" height="98" viewBox="0 0 190 98" fill="none" xmlns="http://www.w3.org/2000/svg">
<path d="M170.218 67.7366L170.774 53.1843H155.295L150.753 67.7366H133.049L158.176 1H188.763L187.829 67.7366H170.218ZM167.723 17.2207L159.095 40.7639H171.237L173.562 17.2207H167.723Z" fill="#F5A623" stroke="#F5A623"/>
<path d="M119.741 1L116.86 51.5159H118.992L136.425 1H154.592L130.392 67.7366H102.586L106.394 25.0066L92.6677 67.7366H64.8608L66.8152 1H84.9823L82.0084 51.5159H84.1403L101.666 1H119.741Z" fill="#F5A623" stroke="#F5A623"/>
<path d="M42.3004 1C50.817 1 56.8956 3.03917 60.5363 7.11752C63.2018 10.2072 64.5346 14.0692 64.5346 18.7037C64.5346 20.3721 64.372 22.1332 64.047 23.987L58.8703 44.6568C57.57 51.6395 54.3844 57.2317 49.3134 61.4337C44.2425 65.6356 37.6762 67.7366 29.6147 67.7366H1.23682L14.9952 1H42.3004ZM36.1567 15.4596H29.818L21.5207 53.277H30.7849C33.8405 53.277 36.2135 52.5046 37.9038 50.9597C39.6591 49.3531 40.8618 46.7578 41.512 43.1738L45.7135 27.9727C45.9736 26.6132 46.1036 25.3774 46.1036 24.2651C46.1036 18.3948 42.7879 15.4596 36.1567 15.4596Z" fill="#F5A623" stroke="#F5A623"/>
<path d="M123.054 97.221C121.197 97.221 119.667 96.8054 118.464 95.9741C117.279 95.1251 116.687 93.9401 116.687 92.4191C116.687 92.2599 116.704 92.0211 116.74 91.7028H120.534C120.463 92.4456 120.657 93.0558 121.117 93.5333C121.595 94.0109 122.285 94.2496 123.187 94.2496C124.089 94.2496 124.796 94.0639 125.309 93.6925C125.84 93.3034 126.105 92.7551 126.105 92.0477C126.105 91.3933 125.831 90.8715 125.282 90.4824C124.752 90.0933 123.912 89.66 122.762 89.1824C121.701 88.7403 120.834 88.3335 120.162 87.962C119.508 87.5906 118.942 87.0777 118.464 86.4233C118.004 85.7512 117.774 84.9111 117.774 83.903C117.774 82.7533 118.066 81.754 118.65 80.9051C119.251 80.0561 120.065 79.4017 121.091 78.9419C122.134 78.482 123.319 78.2521 124.646 78.2521C125.955 78.2521 127.087 78.4732 128.042 78.9153C129.014 79.3398 129.74 79.95 130.217 80.7459C130.712 81.5418 130.925 82.4703 130.854 83.5315H126.901L126.927 83.2397C126.927 82.656 126.706 82.1785 126.264 81.8071C125.84 81.4357 125.238 81.25 124.46 81.25C123.629 81.25 122.957 81.4445 122.444 81.8336C121.931 82.2227 121.674 82.7533 121.674 83.4254C121.674 83.8676 121.816 84.2567 122.099 84.5927C122.4 84.9111 122.762 85.1941 123.187 85.4417C123.611 85.6716 124.221 85.9723 125.017 86.3437C126.061 86.8036 126.918 87.2369 127.591 87.6437C128.263 88.0505 128.837 88.5899 129.315 89.262C129.793 89.9341 130.031 90.7565 130.031 91.7293C130.031 92.7905 129.74 93.7367 129.156 94.568C128.59 95.3993 127.776 96.0537 126.715 96.5312C125.672 96.9911 124.451 97.221 123.054 97.221Z" fill="#DADADA"/>
<path d="M106.861 97.221C105.004 97.221 103.474 96.8054 102.271 95.9741C101.086 95.1251 100.494 93.9401 100.494 92.4191C100.494 92.2599 100.512 92.0211 100.547 91.7028H104.341C104.27 92.4456 104.465 93.0558 104.924 93.5333C105.402 94.0109 106.092 94.2496 106.994 94.2496C107.896 94.2496 108.603 94.0639 109.116 93.6925C109.647 93.3034 109.912 92.7551 109.912 92.0477C109.912 91.3933 109.638 90.8715 109.09 90.4824C108.559 90.0933 107.719 89.66 106.569 89.1824C105.508 88.7403 104.641 88.3335 103.969 87.962C103.315 87.5906 102.749 87.0777 102.271 86.4233C101.812 85.7512 101.582 84.9111 101.582 83.903C101.582 82.7533 101.873 81.754 102.457 80.9051C103.058 80.0561 103.872 79.4017 104.898 78.9419C105.941 78.482 107.126 78.2521 108.453 78.2521C109.762 78.2521 110.894 78.4732 111.849 78.9153C112.821 79.3398 113.547 79.95 114.024 80.7459C114.519 81.5418 114.732 82.4703 114.661 83.5315H110.708L110.734 83.2397C110.734 82.656 110.513 82.1785 110.071 81.8071C109.647 81.4357 109.045 81.25 108.267 81.25C107.436 81.25 106.764 81.4445 106.251 81.8336C105.738 82.2227 105.482 82.7533 105.482 83.4254C105.482 83.8676 105.623 84.2567 105.906 84.5927C106.207 84.9111 106.569 85.1941 106.994 85.4417C107.418 85.6716 108.028 85.9723 108.824 86.3437C109.868 86.8036 110.726 87.2369 111.398 87.6437C112.07 88.0505 112.645 88.5899 113.122 89.262C113.6 89.9341 113.838 90.7565 113.838 91.7293C113.838 92.7905 113.547 93.7367 112.963 94.568C112.397 95.3993 111.583 96.0537 110.522 96.5312C109.479 96.9911 108.258 97.221 106.861 97.221Z" fill="#DADADA"/>
<path d="M92.2105 81.4091L91.3616 86.2111H97.5961L97.0921 89.0763H90.8575L89.982 94.0905H97.0125L96.4819 97.0353H85.7107L89.0004 78.4908H99.745L99.241 81.4091H92.2105Z" fill="#DADADA"/>
<path d="M82.0668 97.0353H78.3261L72.1977 84.3274L69.9426 97.0353H66.2019L69.4916 78.4908H73.2058L79.3608 91.2252L81.6158 78.4908H85.33L82.0668 97.0353Z" fill="#DADADA"/>
<path d="M66.7814 78.5172L66.2508 81.4355H61.3428L58.5837 97.0351H54.8429L57.6021 81.4355H52.6675L53.1981 78.5172H66.7814Z" fill="#DADADA"/>
<path d="M50.5103 78.5172L47.2471 97.0351H43.5063L46.7961 78.5172H50.5103Z" fill="#DADADA"/>
<path d="M44.1624 78.5172L43.6318 81.4355H35.9381L35.0891 86.2905H40.9788L40.4747 89.1557H34.5585L33.179 97.0351H29.4382L32.7279 78.5172H44.1624Z" fill="#DADADA"/>
<path d="M159.366 87.3864C158.39 87.2307 157.539 86.6589 157.021 85.8356L155.689 88.6331C156.577 89.4445 157.693 89.9956 158.917 90.1913C159.692 90.3151 160.42 89.7879 160.544 89.0132C160.668 88.2384 160.141 87.5102 159.366 87.3864Z" fill="#DADADA"/>
<path d="M148.866 93.2093C149.408 93.0076 149.957 92.7167 150.471 92.316C150.242 92.1683 150.035 92.0112 149.851 91.8441C149.425 91.4567 149.121 91.0248 148.918 90.5968C148.836 90.4231 148.771 90.2513 148.717 90.0823C148.58 90.1881 148.44 90.2786 148.294 90.3572C147.988 90.5216 147.662 90.6341 147.325 90.7046C146.989 90.7752 146.644 90.8038 146.319 90.8038C145.857 90.8038 145.436 90.7459 145.142 90.6886C144.995 90.66 144.881 90.6321 144.808 90.6128C144.771 90.6034 144.746 90.5955 144.731 90.5915L144.719 90.5881H144.718C143.974 90.3518 143.177 90.7605 142.937 91.5047C142.695 92.2508 143.105 93.0515 143.851 93.2931C143.895 93.3071 144.166 93.393 144.599 93.4775C145.031 93.5614 145.625 93.6446 146.318 93.6452C146.752 93.6452 147.225 93.6126 147.722 93.5221C148.094 93.4542 148.478 93.3544 148.866 93.2093Z" fill="#DADADA"/>
<path d="M159.519 96.671H158.116C158.14 96.5785 158.155 96.4826 158.161 96.3835C158.162 96.3615 158.165 96.285 158.165 96.1631C158.165 95.8776 158.147 95.3431 158.032 94.6695C157.944 94.1643 157.802 93.5813 157.563 92.9676C157.384 92.5077 157.15 92.0304 156.841 91.5618C156.609 91.2111 156.336 90.8649 156.014 90.5395C155.532 90.0509 154.94 89.6083 154.238 89.2628C154.231 89.2595 154.224 89.2562 154.216 89.2529L156.497 84.4632L156.603 84.2096C157.058 83.124 156.546 81.876 155.46 81.4214C155.308 81.3575 155.152 81.3135 154.996 81.2869C154.862 81.237 154.724 81.2084 154.586 81.1997C154.554 81.1931 154.519 81.1864 154.481 81.1791C154.169 81.1205 153.69 81.054 153.093 81.054C152.298 81.0533 151.285 81.1731 150.161 81.5785C149.037 81.9825 147.808 82.674 146.586 83.7776C146.004 84.3028 145.958 85.2013 146.483 85.7837C147.008 86.3661 147.907 86.4121 148.489 85.8869C149.451 85.0203 150.344 84.5331 151.124 84.2509C151.427 84.1417 151.713 84.0645 151.981 84.0099L150.004 88.1812C150.002 88.1859 150.001 88.1919 149.999 88.2005C149.994 88.2252 149.985 88.2664 149.976 88.321C149.959 88.4308 149.94 88.5939 149.94 88.7889C149.94 89.0086 149.964 89.2668 150.035 89.5344C150.106 89.8026 150.223 90.0789 150.413 90.3498C150.54 90.5302 150.701 90.7092 150.908 90.8816C151.135 91.0706 151.42 91.2523 151.781 91.4154C152.131 91.4846 152.437 91.5785 152.708 91.6883C153.022 91.8161 153.288 91.9665 153.521 92.1336C153.927 92.4258 154.237 92.7699 154.485 93.1493C154.67 93.4335 154.817 93.7377 154.933 94.0425C155.107 94.4998 155.208 94.9604 155.262 95.3425C155.317 95.7238 155.325 96.0254 155.325 96.1638C155.325 96.1984 155.324 96.2224 155.324 96.2357L155.323 96.2463H155.324C155.317 96.3934 155.333 96.5359 155.368 96.6717H148.167C147.872 96.6717 147.634 96.91 147.634 97.2042C147.634 97.4983 147.872 97.7366 148.167 97.7366H159.52C159.814 97.7366 160.052 97.4983 160.052 97.2042C160.052 96.9093 159.813 96.671 159.519 96.671Z" fill="#DADADA"/>
<path d="M145.583 96.67H144.301C144.007 96.67 143.768 96.9083 143.768 97.2025C143.768 97.4967 144.007 97.735 144.301 97.735H145.583C145.878 97.735 146.116 97.4967 146.116 97.2025C146.116 96.9083 145.878 96.67 145.583 96.67Z" fill="#DADADA"/>
<path d="M156.741 81.1258C157.677 81.1258 158.436 80.3671 158.436 79.4312C158.436 78.4953 157.677 77.7366 156.741 77.7366C155.805 77.7366 155.046 78.4953 155.046 79.4312C155.046 80.3671 155.805 81.1258 156.741 81.1258Z" fill="#DADADA"/>
</svg>
