<svg width="11" height="11" viewBox="0 0 11 11" fill="none" xmlns="http://www.w3.org/2000/svg">
<path d="M5.14258 10.499C6.46853 10.4986 7.74006 9.97161 8.67765 9.03387C9.61525 8.09614 10.1422 6.82441 10.1426 5.49825C10.1422 4.17223 9.61518 2.90065 8.67754 1.96317C7.7399 1.02568 6.46839 0.499023 5.14258 0.499023C3.81677 0.499023 2.54522 1.02568 1.60758 1.96317C0.669941 2.90065 0.143 4.17223 0.142578 5.49825C0.142999 6.82441 0.669909 8.09614 1.6075 9.03387C2.54509 9.97161 3.81662 10.4986 5.14258 10.499ZM2.97631 6.781L4.82471 5.35039V3.3396C4.82471 3.25529 4.85819 3.17441 4.9178 3.11479C4.97741 3.05517 5.05828 3.02169 5.14258 3.02169C5.22688 3.02169 5.30771 3.05517 5.36732 3.11479C5.42693 3.17441 5.46044 3.25529 5.46044 3.3396V5.50616C5.46044 5.50616 5.46044 5.5189 5.46044 5.52526C5.46044 5.53162 5.46044 5.54751 5.46044 5.55863C5.45853 5.56836 5.45587 5.57792 5.45249 5.58723C5.4534 5.59728 5.4534 5.60742 5.45249 5.61747L5.43976 5.64607L5.42548 5.67308L5.40798 5.69853C5.40194 5.7067 5.39503 5.71414 5.38734 5.72077C5.38021 5.7295 5.3722 5.73747 5.36348 5.7446L5.35075 5.75733L3.37842 7.29129C3.31195 7.34274 3.22784 7.36574 3.14444 7.35532C3.06104 7.34489 2.98515 7.30187 2.9334 7.23564C2.90573 7.20325 2.88486 7.16564 2.87201 7.12503C2.85916 7.08442 2.85462 7.04162 2.85863 6.99922C2.86263 6.95681 2.87511 6.91566 2.89533 6.87818C2.91555 6.84069 2.94308 6.80763 2.97631 6.781Z" fill="#232323"/>
</svg>
