<svg xmlns="http://www.w3.org/2000/svg" viewBox="0 0 32 32" id="pencil">
  <path d="M24.54,3.29a3,3,0,0,0-4.25,0l-.64.65,1.41,1.41.65-.64a1,1,0,0,1,1.41,0l4.17,4.17a1,1,0,0,1,0,1.41l-2.06,2.06L19.65,6.76l.71-.7L18.94,4.64,2.71,20.88a1,1,0,0,0-.3.7v7h0a1,1,0,0,0,1,1h7a1,1,0,0,0,.71-.29l2.8-2.8-1.41-1.41-1.42,1.41-.67-.67L23.15,13.09l.67.67L13.21,24.37l1.42,1.41L28.71,11.71a3,3,0,0,0,0-4.25ZM18.91,8.85,6.18,21.58l-.67-.67L18.23,8.18ZM4.41,22.64l4.95,4.94H4.41ZM9,24.41,7.59,23,20.32,10.26l1.41,1.42Z"></path>
</svg>
