<svg width="9" height="11" viewBox="0 0 9 11" fill="none" xmlns="http://www.w3.org/2000/svg">
<path d="M2.01675 2.9197C2.45903 2.27413 2.87646 1.68667 3.01623 0.963644C3.01623 0.963644 3.01623 0.963644 3.01623 0.948581C2.87275 0.779481 2.7083 0.63453 2.52799 0.518206C2.51049 0.504636 2.49013 0.496415 2.46895 0.494353C2.44777 0.49229 2.42647 0.496455 2.40716 0.506441C2.38784 0.516426 2.37121 0.531888 2.35882 0.551306C2.34644 0.570723 2.33874 0.59343 2.33653 0.617193C2.31584 0.753668 2.28832 0.888731 2.25416 1.02174C2.19427 1.24244 2.10101 1.4499 1.97847 1.63503C1.74871 1.98148 1.46535 2.2935 1.21262 2.62274C0.611425 3.40817 0.150012 4.37867 0.268719 5.446C0.303747 5.76484 0.391424 6.07354 0.527213 6.35624C0.673735 5.35968 1.02728 4.41601 1.55918 3.60184C1.70469 3.36944 1.86358 3.14134 2.01675 2.9197Z" fill="#232323"/>
<path d="M7.37199 3.30703C7.36701 3.30523 7.36163 3.30523 7.35666 3.30703C7.35782 3.45225 7.34172 3.59699 7.30879 3.73741C7.26824 3.87104 7.20299 3.99351 7.11733 4.09677C7.04579 4.19017 6.95783 4.26592 6.85897 4.31925C6.76012 4.37257 6.65252 4.40233 6.54294 4.40664C6.37131 4.40465 6.20585 4.33453 6.07578 4.20867C5.67945 3.83855 5.60094 3.2059 5.48606 2.67654C5.36896 2.14345 5.14366 1.64806 4.82777 1.22919C4.51187 0.810312 4.11396 0.479319 3.66525 0.262134C3.64669 0.252274 3.62641 0.247132 3.60588 0.24707C3.56858 0.247012 3.5327 0.263056 3.50562 0.291889C3.47854 0.320721 3.46233 0.36014 3.46037 0.402006C3.44569 0.623034 3.41949 0.842903 3.38189 1.06048C3.17128 2.15793 2.42459 2.96919 1.86552 3.85791C1.22603 4.88005 0.777993 6.12814 0.892871 7.39775C1.03455 8.96646 2.02249 10.1134 3.23062 10.6256C3.006 10.4425 2.81839 10.2081 2.68012 9.9377C2.54186 9.66733 2.45608 9.36713 2.42841 9.05684C2.39211 8.3097 2.58992 7.57188 2.98746 6.97167C3.30529 6.44877 3.73609 5.97105 3.85863 5.32549C3.88056 5.19755 3.89526 5.06818 3.90266 4.93815C3.90302 4.92256 3.90683 4.90731 3.91369 4.89376C3.92056 4.88021 3.93027 4.86877 3.94202 4.86047C3.95376 4.85216 3.96716 4.84725 3.981 4.84616C3.99485 4.84507 4.00873 4.84785 4.02139 4.85423C4.28006 4.98595 4.5083 5.18272 4.68856 5.42935C4.86883 5.67597 4.99627 5.96586 5.06102 6.27662C5.12612 6.58649 5.17207 6.96091 5.39991 7.17825C5.71391 7.47736 6.12935 7.15674 6.13127 6.72421V6.67902L6.14851 6.65105C6.19104 6.72689 6.2288 6.80598 6.26149 6.88775V6.89851C6.4515 7.35196 6.55869 7.84362 6.57678 8.34442C6.59487 8.84523 6.52349 9.34503 6.36681 9.8143C6.29332 10.0169 6.19257 10.2056 6.06812 10.3738C5.96091 10.517 5.83727 10.6436 5.70047 10.7504C6.2964 10.5524 6.82845 10.1645 7.23218 9.63354C7.44856 9.34833 7.62488 9.02757 7.75491 8.68241C7.86994 8.37489 7.9584 8.05567 8.01911 7.72913C8.08004 7.39894 8.11528 7.06342 8.12442 6.72636C8.13428 6.38708 8.12021 6.04745 8.08231 5.71068C8.04521 5.37527 7.98501 5.04361 7.9023 4.71866C7.82154 4.39845 7.71783 4.08612 7.59215 3.78475C7.55769 3.70513 7.5213 3.62121 7.48492 3.54159L7.42556 3.41463C7.41491 3.37478 7.39665 3.33805 7.37199 3.30703Z" fill="#232323"/>
</svg>
