<svg width="30" height="28" viewBox="0 0 30 28" fill="none" xmlns="http://www.w3.org/2000/svg">
<path d="M29.0555 27.2509C29.0602 27.2634 29.073 26.4964 29.1575 25.5216C25.9684 26.2856 21.631 26.4256 15.9088 25.9289C8.70974 25.3027 3.28554 20.9501 1.98257 19.8105C3.09395 12.0914 12.1434 2.01596 12.1335 2.01099C12.6104 1.6444 14.6009 1.71573 16.2497 2.00601C17.2441 2.95815 17.4142 4.00816 17.4341 4.48837L16.0424 5.78139H12.7397C12.4395 5.78139 12.1641 5.93482 12.0256 6.19028C9.04813 11.228 8.66495 14.4551 8.86152 16.2732C8.89718 16.6165 9.13936 16.8993 9.47029 16.9873C9.8037 17.0752 10.1545 16.9516 10.3619 16.6762C11.635 14.9337 13.837 13.8887 16.2456 13.8887C19.0912 13.8887 21.6971 15.4031 22.7148 17.6582C22.8715 17.9991 23.2323 18.1907 23.6213 18.1301C23.9979 18.0621 24.2832 17.7461 24.3031 17.3655C24.5046 14.2926 27.0191 12.2349 30.1254 10.2277C26.9032 10.2277 24.1156 12.2879 23.0623 15.1867C21.474 13.3512 18.9718 12.2349 16.2298 12.2349C14.1306 12.2349 12.1285 12.9009 10.5883 14.0852C10.8355 12.56 11.5247 10.3787 13.2042 7.44431H16.3484C16.5599 7.44431 16.7623 7.36884 16.914 7.22204L18.7901 5.46954C18.9344 5.34098 19.0232 5.15935 19.0481 4.96942L19.0484 4.9668C19.0629 4.83504 19.3227 2.48768 17.1471 0.603516C17.0434 0.509795 16.8975 0.443445 16.7631 0.416075C15.7711 0.221998 12.4096 -0.323739 10.9756 0.800082C10.5842 1.23966 1.14572 11.7422 0.251637 20.0543C0.22095 20.3114 0.319647 20.5594 0.498795 20.7411C0.758394 20.9891 6.8743 26.8271 15.7504 27.5943C18.0263 27.7892 20.1147 27.8879 22.0032 27.8879C24.7526 27.8879 27.0857 27.6756 29.0555 27.2509Z" fill="#FF8000"/>
<path fill-rule="evenodd" clip-rule="evenodd" d="M10.935 19.4986C11.1365 19.7101 16.0183 24.6044 21.6034 20.4151C21.965 20.1398 22.4925 20.2136 22.7679 20.5793C23.0407 20.9534 22.9595 21.4709 22.5962 21.7488C20.6164 23.2384 18.6881 23.7667 16.9605 23.7667C12.8011 23.7667 9.77633 20.7062 9.73072 20.6581C9.41969 20.3272 9.42965 19.8039 9.75062 19.4837C10.0865 19.1685 10.614 19.1727 10.935 19.4986ZM4.49064 19.2614C4.96754 19.521 5.99598 19.8976 6.96802 20.1447C7.41257 20.2617 7.68296 20.7154 7.57016 21.1657C7.47146 21.5414 7.13059 21.7919 6.76151 21.7919C6.69101 21.7919 6.63212 21.7819 6.55416 21.7645C5.6551 21.5373 3.49786 20.9136 2.89241 20.0701C2.77381 19.8984 2.72322 19.6911 2.74312 19.4837C2.74356 19.4807 2.74407 19.4771 2.74465 19.473C2.77047 19.2899 2.94315 18.0656 3.76078 17.3323C4.11493 17.0221 4.63247 17.0544 4.94515 17.3953C5.24041 17.7362 5.21055 18.2637 4.87465 18.5697C4.69301 18.7281 4.57441 19.0143 4.49064 19.2614Z" fill="#FF8000"/>
<path d="M30.7673 13.1754C29.0505 12.9838 27.6339 13.367 26.5681 14.3067C24.7576 15.9057 24.712 18.5158 24.712 18.6253C24.712 19.0848 25.0736 19.4638 25.5405 19.4688H25.5505C26.005 19.4688 26.3658 19.103 26.3716 18.6452C26.3716 18.6253 26.4396 16.6455 27.6696 15.5541C28.3687 14.9387 29.3457 14.6957 30.5757 14.8292C31.0103 14.8723 31.4441 14.5489 31.503 14.0944C31.5577 13.6349 31.2218 13.221 30.7673 13.1754Z" fill="#FF8000"/>
</svg>
