<svg width="6" height="13" viewBox="0 0 6 13" fill="none" xmlns="http://www.w3.org/2000/svg">
<path d="M0.585633 12.0714C0.71215 12.072 0.835198 12.0171 0.935146 11.9155L5.7695 7.10998C5.84117 7.0384 5.89925 6.9461 5.93923 6.8403C5.97921 6.7345 6 6.61804 6 6.49999C6 6.38194 5.97921 6.26548 5.93923 6.15968C5.89925 6.05388 5.84117 5.96164 5.7695 5.89005L0.935148 1.08446C0.8352 0.982855 0.712152 0.928005 0.585635 0.928594C0.508817 0.928268 0.432708 0.947827 0.361666 0.986107C0.290624 1.02439 0.22605 1.08061 0.171643 1.15164C0.117237 1.22268 0.0740773 1.30713 0.044623 1.40006C0.0151687 1.49299 -5.17624e-07 1.59263 -1.32832e-07 1.69325L-1.80294e-06 11.3068C-2.22269e-06 11.4074 0.015167 11.507 0.0446213 11.6C0.0740755 11.6929 0.117235 11.7773 0.171641 11.8483C0.226048 11.9194 0.290622 11.9756 0.361664 12.0139C0.432706 12.0522 0.508815 12.0718 0.585633 12.0714Z" fill="#FF8C42"/>
</svg>
