<svg width="20" height="21" viewBox="0 0 20 21" fill="none" xmlns="http://www.w3.org/2000/svg">
<path d="M8.75 1.22169C9.5235 0.775106 10.4765 0.775106 11.25 1.22169L17.4103 4.77831C18.1838 5.22489 18.6603 6.05021 18.6603 6.94338V14.0566C18.6603 14.9498 18.1838 15.7751 17.4103 16.2217L11.25 19.7783C10.4765 20.2249 9.5235 20.2249 8.75 19.7783L2.58975 16.2217C1.81624 15.7751 1.33975 14.9498 1.33975 14.0566V6.94338C1.33975 6.05021 1.81624 5.22489 2.58975 4.77831L8.75 1.22169Z" fill="#F5A623"/>
<path d="M9.16671 1.81413C9.68237 1.51641 10.3177 1.51641 10.8334 1.81413L17.1053 5.43522C17.6209 5.73294 17.9386 6.28315 17.9386 6.87859V14.1208C17.9386 14.7162 17.6209 15.2664 17.1053 15.5641L10.8334 19.1852C10.3177 19.4829 9.68238 19.4829 9.16671 19.1852L2.89481 15.5641C2.37914 15.2664 2.06147 14.7162 2.06147 14.1208V6.87859C2.06147 6.28315 2.37914 5.73294 2.89481 5.43522L9.16671 1.81413Z" fill="url(#paint0_linear_2439_1462)"/>
<path opacity="0.5" d="M10.4861 5.63867H9.5139C8.5971 5.63867 8.13918 5.63867 7.85432 5.92353C7.56946 6.20839 7.56946 6.66631 7.56946 7.58312V9.52756H12.4306V7.58312C12.4306 6.66631 12.4306 6.20839 12.1457 5.92353C11.8608 5.63867 11.4029 5.63867 10.4861 5.63867Z" fill="white"/>
<path fill-rule="evenodd" clip-rule="evenodd" d="M9.99997 15.3608C11.0314 15.3608 12.0205 14.9511 12.7498 14.2218C13.4791 13.4924 13.8889 12.5033 13.8889 11.4719C13.8889 10.4405 13.4791 9.45134 12.7498 8.72204C12.0205 7.99273 11.0314 7.58301 9.99997 7.58301C8.96858 7.58301 7.97942 7.99273 7.25011 8.72204C6.52081 9.45134 6.11108 10.4405 6.11108 11.4719C6.11108 12.5033 6.52081 13.4924 7.25011 14.2218C7.97942 14.9511 8.96858 15.3608 9.99997 15.3608ZM9.99997 10.0136C9.86192 10.0136 9.76956 10.1788 9.58483 10.5109L9.5372 10.5964C9.4847 10.6907 9.45844 10.7374 9.41761 10.7685C9.37629 10.7996 9.32525 10.8113 9.22317 10.8341L9.13081 10.8555C8.77206 10.9367 8.59268 10.977 8.5499 11.1141C8.50713 11.2517 8.62963 11.3946 8.87414 11.6804L8.93733 11.7543C9.00685 11.8355 9.04185 11.8759 9.0574 11.9264C9.07296 11.977 9.06761 12.0309 9.0574 12.1393L9.04768 12.238C9.01074 12.6196 8.99226 12.8106 9.10358 12.8952C9.21539 12.9798 9.38358 12.9025 9.71949 12.7479L9.80601 12.7081C9.90178 12.6643 9.94942 12.642 9.99997 12.642C10.0505 12.642 10.0982 12.6643 10.1939 12.7081L10.2805 12.7479C10.6164 12.903 10.7846 12.9798 10.8964 12.8952C11.0082 12.8106 10.9892 12.6196 10.9523 12.238L10.9425 12.1393C10.9323 12.0309 10.927 11.977 10.9425 11.9264C10.9581 11.8763 10.9931 11.8355 11.0626 11.7543L11.1258 11.6804C11.3703 11.3946 11.4928 11.2517 11.45 11.1141C11.4073 10.977 11.2279 10.9367 10.8691 10.8555L10.7768 10.8341C10.6747 10.8113 10.6237 10.8001 10.5823 10.7685C10.5415 10.7374 10.5153 10.6907 10.4628 10.5964L10.4151 10.5109C10.2304 10.1788 10.138 10.0136 9.99997 10.0136Z" fill="white"/>
<defs>
<linearGradient id="paint0_linear_2439_1462" x1="0.833089" y1="19.6662" x2="19.1665" y2="1.33278" gradientUnits="userSpaceOnUse">
<stop stop-color="#E8A312"/>
<stop offset="1" stop-color="#FFDA72"/>
</linearGradient>
</defs>
</svg>
