<svg width="21" height="25" viewBox="0 0 21 25" fill="none" xmlns="http://www.w3.org/2000/svg">
<path d="M9.25 18.75H11.75V11.25H9.25V18.75ZM10.5 8.75C10.8542 8.75 11.1513 8.63 11.3913 8.39C11.6313 8.15 11.7508 7.85333 11.75 7.5C11.75 7.14583 11.63 6.84875 11.39 6.60875C11.15 6.36875 10.8533 6.24917 10.5 6.25C10.1458 6.25 9.84875 6.37 9.60875 6.61C9.36875 6.85 9.24917 7.14667 9.25 7.5C9.25 7.85417 9.37 8.15125 9.61 8.39125C9.85 8.63125 10.1467 8.75083 10.5 8.75ZM10.5 25C7.60417 24.2708 5.21333 22.6092 3.3275 20.015C1.44167 17.4208 0.499167 14.5408 0.500001 11.375V3.75L10.5 0L20.5 3.75V11.375C20.5 14.5417 19.5571 17.4221 17.6712 20.0163C15.7854 22.6104 13.395 24.2717 10.5 25ZM10.5 22.375C12.6667 21.6875 14.4583 20.3125 15.875 18.25C17.2917 16.1875 18 13.8958 18 11.375V5.46875L10.5 2.65625L3 5.46875V11.375C3 13.8958 3.70833 16.1875 5.125 18.25C6.54167 20.3125 8.33333 21.6875 10.5 22.375Z" fill="#F5A623"/>
</svg>
