<svg width="15" height="18" viewBox="0 0 15 18" fill="none" xmlns="http://www.w3.org/2000/svg">
<path d="M0.839225 14.3828C1.01431 14.639 1.26756 14.8289 1.55964 14.9228C2.40535 15.1788 3.27238 15.3547 4.14975 15.4485C5.27852 15.5795 6.4139 15.6436 7.54996 15.6405C8.6868 15.6437 9.8228 15.5796 10.9523 15.4485C11.8297 15.3547 12.6968 15.1788 13.5425 14.9228C13.8345 14.8289 14.0879 14.639 14.263 14.3828C14.4267 14.1407 14.5138 13.8534 14.5126 13.5594C14.5125 13.3663 14.4743 13.1753 14.4003 12.9975C14.3262 12.8198 14.2179 12.6591 14.0817 12.5249C13.6339 12.0631 13.3097 11.4921 13.1398 10.8663C12.9827 10.3288 12.9033 9.77088 12.9044 9.21007C12.9044 8.97003 12.9162 8.78042 12.9279 8.6244C12.9468 8.41557 12.9609 8.20191 12.9609 7.98348C12.9621 7.75199 12.9448 7.52082 12.9091 7.29221C12.7037 6.00692 12.058 4.83749 11.0866 3.99177C10.483 3.46125 9.7712 3.07426 9.00275 2.85882C9.21759 2.55294 9.33286 2.18605 9.33238 1.80985C9.33238 1.32985 9.14531 0.869522 8.81236 0.53011C8.47941 0.190699 8.02784 0 7.55697 0C7.08651 0.000636054 6.63552 0.191647 6.30308 0.530989C5.97063 0.870332 5.78397 1.33027 5.78398 1.80985C5.7835 2.18605 5.89877 2.55294 6.1136 2.85882C5.34516 3.07426 4.63332 3.46125 4.02972 3.99177C3.05834 4.83749 2.41253 6.00692 2.20717 7.29221C2.17147 7.52082 2.15421 7.75199 2.15543 7.98348C2.15543 8.20191 2.16959 8.41557 2.18843 8.6244C2.18843 8.78042 2.21189 8.97964 2.21189 9.21007C2.21556 9.77022 2.1403 10.328 1.98826 10.8663C1.81502 11.4933 1.48658 12.0645 1.03456 12.5249C0.898379 12.6591 0.790114 12.8198 0.716089 12.9975C0.642065 13.1753 0.603889 13.3663 0.603761 13.5594C0.598414 13.8519 0.680545 14.1391 0.839225 14.3828ZM6.9613 2.41234C6.80776 2.25114 6.7231 2.03452 6.72583 1.80985C6.72346 1.58597 6.80812 1.37023 6.9613 1.20977C7.11884 1.05384 7.33038 0.967586 7.54996 0.96974C7.77035 0.96695 7.98279 1.05325 8.14092 1.20977C8.2941 1.37023 8.37875 1.58597 8.37638 1.80985C8.37912 2.03452 8.29446 2.25114 8.14092 2.41234C7.98279 2.56885 7.77035 2.65516 7.54996 2.65237C7.44002 2.65452 7.33075 2.63444 7.22849 2.59324C7.12624 2.55204 7.03296 2.49052 6.95417 2.41234H6.9613Z" fill="#FEB80A"/>
<path d="M8.47992 16.0486C8.41854 16.0408 8.35626 16.0455 8.29665 16.0623C8.23705 16.0791 8.18135 16.1078 8.13259 16.1465C8.08383 16.1853 8.04304 16.2335 8.01256 16.2884C7.98207 16.3432 7.96241 16.4036 7.95484 16.4662C7.93593 16.6237 7.86141 16.7687 7.74524 16.8743C7.62733 16.9815 7.47474 17.0404 7.31674 17.0399C7.16063 17.0401 7.00989 16.9821 6.89295 16.8767C6.77625 16.7722 6.70081 16.628 6.68094 16.471C6.66453 16.3451 6.59988 16.2309 6.50101 16.1535C6.40214 16.0761 6.27718 16.0418 6.15356 16.0582C6.09217 16.0662 6.03286 16.0864 5.97915 16.1178C5.92544 16.1491 5.87832 16.191 5.84049 16.2409C5.80266 16.2908 5.77493 16.3479 5.75874 16.4088C5.74256 16.4697 5.73829 16.5333 5.74621 16.5958C5.79601 16.9823 5.9817 17.3371 6.26888 17.5944C6.55755 17.856 6.9305 18.0003 7.31674 18C7.70584 17.9996 8.08124 17.8536 8.37162 17.5896C8.65906 17.3291 8.84332 16.9706 8.88968 16.5814C8.90432 16.4554 8.86942 16.3287 8.79265 16.2288C8.71588 16.129 8.60342 16.0642 8.47992 16.0486Z" fill="#FEB80A"/>
</svg>
