<svg width="19" height="20" viewBox="0 0 19 20" fill="none" xmlns="http://www.w3.org/2000/svg">
<path d="M18.7633 11.6665C18.7699 11.6123 18.7726 11.5574 18.7714 11.5025C18.7348 9.83795 17.5902 9.66313 16.2648 9.46072C15.9458 9.412 15.5842 9.35676 15.205 9.27912C12.5858 8.74256 10.3114 7.44979 8.44522 5.43667C8.36805 5.35349 8.25972 5.30615 8.1462 5.30615H6.77801C6.6153 5.30615 6.46812 5.4029 6.40365 5.5523C6.02956 6.41887 5.20084 6.97882 4.29238 6.97882C3.38392 6.97882 2.5552 6.41887 2.18115 5.5523C2.11668 5.4029 1.9695 5.30615 1.80679 5.30615H0.883221C0.66132 5.30615 0.480151 5.48363 0.475559 5.70549C0.463241 6.30007 0.400319 6.92216 0.3395 7.52379C0.179834 9.10271 0.0284527 10.5995 0.7536 11.6005C0.491525 11.8855 0.336495 12.2872 0.336495 12.7245V13.1504C0.336495 14.0014 0.934554 14.6937 1.66962 14.6937H12.6042C15.4616 14.6937 17.5743 14.0976 18.4006 13.0583C18.7307 12.643 18.8553 12.1634 18.7633 11.6665ZM1.15087 7.60576C1.20011 7.11883 1.25067 6.6188 1.27625 6.12161H1.55107C2.09844 7.14608 3.14738 7.79431 4.29238 7.79431C5.43738 7.79431 6.48632 7.14608 7.03373 6.12161H7.96966C8.10555 6.26475 8.24375 6.40471 8.38363 6.54077L8.07894 6.92693C7.93945 7.10372 7.96966 7.36013 8.14645 7.49962C8.32329 7.63907 8.57965 7.60881 8.71915 7.43211L8.98581 7.09415C9.14273 7.23021 9.3018 7.36202 9.46326 7.48979L9.18295 7.845C9.04346 8.0218 9.07367 8.2782 9.25046 8.4177C9.42725 8.55719 9.68362 8.52697 9.82315 8.35018L10.118 7.97656C10.2881 8.09519 10.4608 8.2097 10.6355 8.31967L10.3853 8.63672C10.2458 8.81347 10.2761 9.06988 10.4528 9.20941C10.6296 9.34886 10.886 9.31869 11.0255 9.1419L11.3457 8.73613C11.5305 8.83682 11.7179 8.933 11.9073 9.02451L11.6932 9.29577C11.5537 9.47256 11.5839 9.72897 11.7606 9.86846C11.9374 10.008 12.1939 9.97774 12.3333 9.80104L12.6767 9.36595C13.0511 9.5178 13.4334 9.65274 13.8241 9.77073C13.2646 10.5559 12.2223 10.881 11.2995 10.5113C11.2824 10.4999 11.2643 10.4896 11.245 10.4806C9.87994 9.84108 8.57248 9.03846 7.24812 8.02707C7.23327 8.01523 7.11288 7.95591 7.06734 7.94454C6.99467 7.92638 6.82299 7.93578 6.73092 8.03347C6.69955 8.06678 6.62298 8.17386 6.61577 8.1915C6.25635 9.01378 5.26338 9.58733 4.19757 9.58733C3.70908 9.58733 2.51391 9.45059 1.96714 8.18404C1.90268 8.03463 1.7555 7.93789 1.59279 7.93789H1.11757C1.12843 7.82771 1.13963 7.71702 1.15087 7.60576ZM12.6042 13.8782H1.66962C1.38904 13.8782 1.15199 13.5449 1.15199 13.1504V12.7245C1.15199 12.5071 1.22586 12.3022 1.34428 12.1651C1.868 12.5106 2.57469 12.6796 3.48572 12.6796H17.6469C16.8958 13.433 15.0374 13.8782 12.6042 13.8782ZM17.9476 11.6069C17.9336 11.6694 17.9028 11.7265 17.8574 11.7729C17.7999 11.8317 17.727 11.8642 17.6523 11.8642H3.48577C2.63306 11.8642 2.02599 11.701 1.63811 11.3665C1.62867 11.3572 1.54347 11.2779 1.51347 11.2448C1.02825 10.708 0.979363 9.79644 1.04791 8.75325H1.33685C1.89057 9.79142 2.9408 10.4027 4.19752 10.4027C5.41081 10.4027 6.52546 9.83602 7.12301 8.95266C8.34702 9.85456 9.56464 10.588 10.8309 11.1869C10.8545 11.2042 10.8804 11.2192 10.9083 11.2314C12.3002 11.8415 13.9139 11.2851 14.6492 9.99182C14.7791 10.0223 14.9097 10.051 15.0413 10.078C15.4408 10.1598 15.8131 10.2167 16.1417 10.2669C17.5334 10.4794 17.9355 10.5825 17.9561 11.5204C17.9566 11.5441 17.9486 11.6013 17.9476 11.6069Z" fill="#99F163"/>
</svg>
