<svg width="14" height="18" viewBox="0 0 14 18" fill="none" xmlns="http://www.w3.org/2000/svg">
<g clip-path="url(#clip0_2233_822)">
<path d="M2.86833 6.78508C2.86833 6.63525 2.9886 6.51347 3.13676 6.51347H9.53353C9.68187 6.51347 9.80188 6.63516 9.80188 6.78508C9.80188 6.93517 9.68178 7.05669 9.53353 7.05669H3.13676C2.98869 7.0566 2.86833 6.93569 2.86833 6.78508ZM3.13676 9.41064H9.53353C9.68187 9.41064 9.80188 9.28869 9.80188 9.13912C9.80188 8.99008 9.68178 8.86751 9.53353 8.86751H3.13676C2.98869 8.86751 2.86833 8.98903 2.86833 9.13912C2.86833 9.28921 2.98869 9.41064 3.13676 9.41064ZM5.90276 11.2204H3.13728C2.9892 11.2204 2.86885 11.3429 2.86885 11.4919C2.86885 11.6426 2.98912 11.7635 3.13728 11.7635H5.90276C6.05118 11.7635 6.17119 11.6426 6.17119 11.4919C6.17119 11.3419 6.05118 11.2204 5.90276 11.2204ZM5.54479 13.5745H3.13728C2.9892 13.5745 2.86885 13.696 2.86885 13.8461C2.86885 13.9956 2.98912 14.1176 3.13728 14.1176H5.54479C5.69313 14.1176 5.81322 13.9956 5.81322 13.8461C5.81314 13.6959 5.69313 13.5745 5.54479 13.5745ZM13.1264 13.8906C13.1264 15.7752 11.6125 17.3076 9.74945 17.3076C8.87873 17.3076 8.08713 16.9703 7.48742 16.4208C7.48691 16.4208 7.48587 16.4219 7.48484 16.4219H1.2655C1.11717 16.4219 0.99707 16.2993 0.99707 16.1503V3.44688C0.99707 3.29697 1.11717 3.17527 1.2655 3.17527H3.53226V2.42901C3.53226 2.27918 3.65253 2.15749 3.80069 2.15749H4.90075C4.90075 2.15322 4.90075 2.14826 4.90075 2.14399C4.90075 1.34319 5.54479 0.692139 6.33605 0.692139C7.12739 0.692139 7.77109 1.34319 7.77109 2.1439C7.77109 2.14817 7.77109 2.15313 7.77109 2.1574H8.87081C9.01871 2.1574 9.13924 2.27909 9.13924 2.42892V3.17519H11.4054C11.5538 3.17519 11.6737 3.29688 11.6737 3.44679V11.0856C12.5509 11.7036 13.1264 12.73 13.1264 13.8906ZM4.06903 4.03086H8.60195V2.70105H7.46384C7.38179 2.70105 7.30293 2.66264 7.25179 2.59626C7.20066 2.52988 7.18309 2.44382 7.2035 2.36289C7.22442 2.27962 7.23397 2.21063 7.23397 2.14434C7.23397 1.64311 6.83081 1.2357 6.33545 1.2357C5.84008 1.2357 5.43692 1.64311 5.43692 2.14434C5.43692 2.21063 5.44665 2.28223 5.4668 2.36394C5.48668 2.44478 5.4686 2.53101 5.41807 2.59678C5.36779 2.66255 5.28936 2.70096 5.20655 2.70096H4.06903V4.03086ZM1.53393 15.8775H7.00756C6.60939 15.3174 6.37195 14.6321 6.37195 13.8905C6.37195 12.0065 7.88697 10.4725 9.74893 10.4725C10.2433 10.4725 10.712 10.5839 11.136 10.7776V3.71788H9.13821V4.30133C9.13821 4.45116 9.01768 4.57285 8.86986 4.57285H3.80017C3.6521 4.57285 3.53174 4.45116 3.53174 4.30133V3.71788H1.53341L1.53393 15.8775ZM12.5897 13.8906C12.5897 12.3058 11.3153 11.0157 9.74953 11.0157C8.18372 11.0157 6.90933 12.3057 6.90933 13.8906C6.90933 15.4755 8.18372 16.7645 9.74953 16.7645C11.3153 16.7645 12.5897 15.4755 12.5897 13.8906ZM11.2299 12.7586L9.58588 14.3537L8.4735 13.4541C8.35763 13.3608 8.18932 13.3798 8.09608 13.4965C8.00379 13.6143 8.02265 13.784 8.13792 13.8784L9.43384 14.9275C9.48309 14.9668 9.5424 14.9859 9.60155 14.9859C9.66861 14.9859 9.73585 14.9605 9.78716 14.9101L11.6004 13.1507C11.7067 13.0478 11.7109 12.8744 11.6082 12.7667C11.5056 12.6574 11.3363 12.6552 11.2299 12.7586Z" fill="#ADDAFA"/>
<path fill-rule="evenodd" clip-rule="evenodd" d="M6.33586 0.842236C5.62641 0.842236 5.04881 1.4262 5.04881 2.14409V2.30759H3.8005C3.73418 2.30759 3.68031 2.36215 3.68031 2.42911V3.32537H1.26531C1.19891 3.32537 1.14512 3.37984 1.14512 3.44698V16.1504C1.14512 16.217 1.19922 16.272 1.26531 16.272H7.46902C7.47452 16.2713 7.48062 16.2709 7.48723 16.2709H7.54439L7.58675 16.3097C8.16066 16.8356 8.91726 17.1577 9.74926 17.1577C11.5304 17.1577 12.978 15.6925 12.978 13.8907C12.978 12.7815 12.4281 11.8001 11.5888 11.2088L11.5253 11.164V3.44689C11.5253 3.37966 11.4716 3.32528 11.4052 3.32528H8.9908V2.42902C8.9908 2.36216 8.93677 2.3075 8.87062 2.3075H7.62265V2.14455C7.62265 1.42672 7.04536 0.842236 6.33586 0.842236ZM4.75801 2.00759C4.82668 1.1876 5.50822 0.542236 6.33586 0.542236C7.16361 0.542236 7.84481 1.18762 7.91346 2.0075H8.87062C9.10027 2.0075 9.28729 2.19622 9.28729 2.42902V3.02528H11.4052C11.6357 3.02528 11.8218 3.21429 11.8218 3.44689V11.0084C12.701 11.6574 13.2745 12.707 13.2745 13.8907C13.2745 15.8581 11.6942 17.4577 9.74926 17.4577C8.86114 17.4577 8.05202 17.1216 7.43204 16.572H1.26531C1.03473 16.572 0.848633 16.3819 0.848633 16.1504V3.44698C0.848633 3.21428 1.03504 3.02537 1.26531 3.02537H3.38382V2.42911C3.38382 2.1964 3.57049 2.00759 3.8005 2.00759H4.75801ZM5.28849 2.14443C5.28849 1.56025 5.75813 1.0858 6.33526 1.0858C6.91238 1.0858 7.38203 1.56025 7.38203 2.14443C7.38203 2.22611 7.37013 2.3078 7.34698 2.39994C7.33789 2.43601 7.34565 2.47444 7.36852 2.50414C7.39137 2.53379 7.42696 2.55115 7.46364 2.55115H8.75V4.18096H3.9206V2.55106H5.20635C5.24412 2.55106 5.27892 2.53348 5.30062 2.5051C5.32327 2.47562 5.33163 2.43637 5.32275 2.40027C5.30043 2.30972 5.28849 2.22569 5.28849 2.14443ZM6.33526 1.3858C5.92166 1.3858 5.58498 1.72616 5.58498 2.14443C5.58498 2.19573 5.59248 2.25489 5.61044 2.32773C5.64133 2.45329 5.61333 2.58687 5.53493 2.68892C5.45607 2.79191 5.33411 2.85106 5.20635 2.85106H4.21709V3.88096H8.45351V2.85115H7.46364C7.33624 2.85115 7.21412 2.79168 7.13468 2.68858C7.05528 2.58551 7.02795 2.45169 7.05966 2.32591C7.05965 2.32595 7.05967 2.32587 7.05966 2.32591C7.07833 2.25156 7.08554 2.1953 7.08554 2.14443C7.08554 1.72616 6.74886 1.3858 6.33526 1.3858ZM1.38497 3.56797H3.6798V4.30143C3.6798 4.36835 3.73372 4.42295 3.79998 4.42295H8.86967C8.93571 4.42295 8.98977 4.36832 8.98977 4.30143V3.56797H11.2841V11.0099L11.0748 10.9144C10.6688 10.7289 10.2208 10.6226 9.74874 10.6226C7.96871 10.6226 6.52001 12.0894 6.52001 13.8906C6.52001 14.5993 6.74677 15.2542 7.12771 15.79L7.29661 16.0276H1.3855L1.38497 3.56797ZM1.68147 3.86797L1.68198 15.7276H6.73176C6.41057 15.1913 6.22351 14.5632 6.22351 13.8906C6.22351 11.9238 7.80484 10.3226 9.74874 10.3226C10.1851 10.3226 10.6022 10.4057 10.9876 10.5532V3.86797H9.28626V4.30143C9.28626 4.5342 9.09927 4.72295 8.86967 4.72295H3.79998C3.57009 4.72295 3.38331 4.53417 3.38331 4.30143V3.86797H1.68147ZM3.13657 6.66357C3.07031 6.66357 3.01638 6.71816 3.01638 6.78518C3.01638 6.85258 3.07003 6.90674 3.13666 6.90678H9.53334C9.59969 6.90678 9.65344 6.85246 9.65344 6.78518C9.65344 6.71798 9.59968 6.66357 9.53334 6.66357H3.13657ZM2.71989 6.78518C2.71989 6.55254 2.9065 6.36357 3.13657 6.36357H9.53334C9.76367 6.36357 9.94993 6.55254 9.94993 6.78518C9.94993 7.01808 9.76349 7.20678 9.53334 7.20678H3.13657C2.90704 7.20665 2.71989 7.01899 2.71989 6.78518ZM2.71989 9.13922C2.71989 8.90619 2.90671 8.71761 3.13657 8.71761H9.53334C9.76387 8.71761 9.94993 8.90774 9.94993 9.13922C9.94993 9.37144 9.76373 9.56074 9.53334 9.56074H3.13657C2.90677 9.56074 2.71989 9.3723 2.71989 9.13922ZM3.13657 9.01761C3.07027 9.01761 3.01638 9.07206 3.01638 9.13922C3.01638 9.20631 3.07021 9.26074 3.13657 9.26074H9.53334C9.59962 9.26074 9.65344 9.20613 9.65344 9.13922C9.65344 9.07261 9.59931 9.01761 9.53334 9.01761H3.13657ZM6.76089 13.8907C6.76089 12.223 8.1016 10.8658 9.74934 10.8658C11.3971 10.8658 12.7378 12.2231 12.7378 13.8907C12.7378 15.5585 11.397 16.9146 9.74934 16.9146C8.10167 16.9146 6.76089 15.5585 6.76089 13.8907ZM9.74934 11.1658C8.26546 11.1658 7.05738 12.3886 7.05738 13.8907C7.05738 15.3928 8.26539 16.6146 9.74934 16.6146C11.2333 16.6146 12.4413 15.3928 12.4413 13.8907C12.4413 12.3887 11.2332 11.1658 9.74934 11.1658ZM2.72041 11.492C2.72041 11.2604 2.90692 11.0705 3.13709 11.0705H5.90257C6.13286 11.0705 6.31924 11.2592 6.31924 11.492C6.31924 11.7258 6.13267 11.9136 5.90257 11.9136H3.13709C2.90733 11.9136 2.72041 11.7259 2.72041 11.492ZM3.13709 11.3705C3.0711 11.3705 3.0169 11.4256 3.0169 11.492C3.0169 11.5596 3.07052 11.6136 3.13709 11.6136H5.90257C5.9693 11.6136 6.02275 11.5597 6.02275 11.492C6.02275 11.4249 5.96911 11.3705 5.90257 11.3705H3.13709ZM11.1271 12.6504C11.2917 12.4905 11.555 12.493 11.7151 12.6631C11.8748 12.8309 11.8678 13.0992 11.7028 13.259M11.7028 13.259L9.89017 15.0179C9.89006 15.018 9.89028 15.0178 9.89017 15.0179C9.80999 15.0964 9.70502 15.136 9.60135 15.136C9.51075 15.136 9.41867 15.1067 9.34186 15.0454L9.34103 15.0447L8.04512 13.9956L8.04445 13.9951C7.8662 13.8491 7.83677 13.5858 7.97973 13.4034L7.98059 13.4023C8.12479 13.2218 8.38574 13.192 8.56561 13.3368L9.57681 14.1545L11.1271 12.6504M11.5005 12.8701C11.4554 12.822 11.3804 12.8202 11.3324 12.8669L9.59456 14.553L8.38101 13.5715C8.38098 13.5715 8.38104 13.5716 8.38101 13.5715C8.32932 13.53 8.25398 13.5379 8.21165 13.5903C8.17056 13.6433 8.17884 13.7189 8.23069 13.7616C8.23058 13.7615 8.2308 13.7617 8.23069 13.7616L9.52544 14.8098C9.5253 14.8097 9.52557 14.8099 9.52544 14.8098C9.54705 14.8269 9.57384 14.836 9.60135 14.836C9.63167 14.836 9.66136 14.8245 9.68376 14.8025L9.68436 14.8019L11.4976 13.0425C11.5449 12.9967 11.5467 12.9185 11.5014 12.871L11.5005 12.8701ZM2.72041 13.8462C2.72041 13.6131 2.90723 13.4246 3.13709 13.4246H5.5446C5.77486 13.4246 5.96114 13.6132 5.96128 13.8461C5.96128 14.0784 5.77493 14.2677 5.5446 14.2677H3.13709C2.90699 14.2677 2.72041 14.0785 2.72041 13.8462ZM3.13709 13.7246C3.07079 13.7246 3.0169 13.779 3.0169 13.8462C3.0169 13.9129 3.07086 13.9677 3.13709 13.9677H5.5446C5.61091 13.9677 5.66474 13.9131 5.66479 13.8463C5.66475 13.7788 5.61101 13.7246 5.5446 13.7246H3.13709Z" fill="#ADDAFA"/>
</g>
<defs>
<clipPath id="clip0_2233_822">
<rect width="13" height="18" fill="white" transform="translate(0.333008)"/>
</clipPath>
</defs>
</svg>
