<svg width="15" height="20" viewBox="0 0 15 20" fill="none" xmlns="http://www.w3.org/2000/svg">
<path d="M3.31435 5.33466C4.14404 4.16687 4.92712 3.10418 5.18932 1.79625C5.18932 1.79625 5.18932 1.79625 5.18932 1.769C4.92016 1.46311 4.61166 1.2009 4.27341 0.990473C4.24058 0.965925 4.20239 0.951054 4.16265 0.947323C4.12292 0.943591 4.08296 0.951127 4.04673 0.96919C4.0105 0.987253 3.9793 1.01522 3.95606 1.05035C3.93282 1.08547 3.91839 1.12655 3.91423 1.16954C3.87542 1.41641 3.82379 1.66074 3.75972 1.90135C3.64735 2.30059 3.47241 2.67587 3.24253 3.01076C2.81152 3.63747 2.27994 4.20191 1.80583 4.79748C0.678016 6.2183 -0.187572 7.97388 0.0351164 9.90463C0.100827 10.4814 0.265306 11.0398 0.520038 11.5512C0.794907 9.74849 1.45814 8.04143 2.45596 6.56863C2.72893 6.14823 3.02701 5.73561 3.31435 5.33466Z" fill="#FF8C42"/>
<path d="M13.3605 6.03534C13.3512 6.03207 13.3411 6.03207 13.3318 6.03534C13.3339 6.29803 13.3037 6.55985 13.242 6.81387C13.1659 7.0556 13.0435 7.27714 12.8828 7.46394C12.7486 7.6329 12.5836 7.76992 12.3981 7.86639C12.2127 7.96286 12.0108 8.01668 11.8053 8.02448C11.4833 8.02088 11.1729 7.89403 10.9289 7.66636C10.1854 6.99682 10.0381 5.85239 9.82261 4.8948C9.60294 3.93046 9.18028 3.03433 8.58768 2.27661C7.99508 1.51888 7.24862 0.920128 6.40685 0.527249C6.37203 0.509414 6.334 0.500111 6.29549 0.5C6.22551 0.499895 6.15819 0.528918 6.10739 0.581074C6.05659 0.633231 6.02619 0.704539 6.02251 0.780271C5.99497 1.1801 5.94583 1.57783 5.87528 1.97142C5.48018 3.95667 4.07943 5.4242 3.03064 7.03186C1.83099 8.88086 0.990491 11.1386 1.206 13.4353C1.47179 16.273 3.32512 18.3478 5.59152 19.2742C5.17013 18.9431 4.81818 18.519 4.5588 18.0299C4.29942 17.5408 4.1385 16.9978 4.08659 16.4365C4.0185 15.0849 4.38958 13.7503 5.13535 12.6645C5.73159 11.7186 6.53975 10.8544 6.76962 9.68664C6.81076 9.4552 6.83835 9.22118 6.85222 8.98597C6.8529 8.95776 6.86004 8.93018 6.87292 8.90566C6.8858 8.88115 6.90402 8.86046 6.92606 8.84544C6.94809 8.83041 6.97322 8.82153 6.99919 8.81956C7.02516 8.81759 7.05121 8.8226 7.07496 8.83415C7.56021 9.07244 7.98838 9.42838 8.32655 9.87452C8.66471 10.3207 8.90378 10.845 9.02525 11.4072C9.14737 11.9677 9.23358 12.6451 9.661 13.0382C10.25 13.5793 11.0294 12.9993 11.033 12.2169V12.1351L11.0653 12.0845C11.1451 12.2217 11.216 12.3648 11.2773 12.5127V12.5322C11.6337 13.3524 11.8348 14.2418 11.8688 15.1478C11.9027 16.0537 11.7688 16.9578 11.4749 17.8067C11.337 18.1732 11.148 18.5145 10.9145 18.8188C10.7134 19.0779 10.4815 19.3069 10.2248 19.5C11.3428 19.1419 12.3409 18.4401 13.0982 17.4797C13.5042 16.9638 13.8349 16.3835 14.0789 15.7592C14.2947 15.2029 14.4606 14.6254 14.5745 14.0347C14.6888 13.4374 14.7549 12.8305 14.7721 12.2208C14.7906 11.607 14.7641 10.9926 14.6931 10.3834C14.6235 9.7767 14.5105 9.17673 14.3554 8.58892C14.2039 8.00966 14.0093 7.44467 13.7735 6.89951C13.7089 6.75548 13.6406 6.60367 13.5724 6.45964L13.461 6.22997C13.4411 6.1579 13.4068 6.09145 13.3605 6.03534Z" fill="#FF8C42"/>
</svg>
