<svg width="21" height="27" viewBox="0 0 21 27" fill="none" xmlns="http://www.w3.org/2000/svg">
<path d="M18 9.5H16.75V7C16.75 3.55 13.95 0.75 10.5 0.75C7.05 0.75 4.25 3.55 4.25 7V9.5H3C1.625 9.5 0.5 10.625 0.5 12V24.5C0.5 25.875 1.625 27 3 27H18C19.375 27 20.5 25.875 20.5 24.5V12C20.5 10.625 19.375 9.5 18 9.5ZM6.75 7C6.75 4.925 8.425 3.25 10.5 3.25C12.575 3.25 14.25 4.925 14.25 7V9.5H6.75V7ZM18 24.5H3V12H18V24.5ZM10.5 20.75C11.875 20.75 13 19.625 13 18.25C13 16.875 11.875 15.75 10.5 15.75C9.125 15.75 8 16.875 8 18.25C8 19.625 9.125 20.75 10.5 20.75Z" fill="#F5A623"/>
</svg>
