<svg width="15" height="18" viewBox="0 0 15 18" fill="none" xmlns="http://www.w3.org/2000/svg">
<path d="M7.7566 6.10027C8.1563 6.10027 8.55212 6.02129 8.92136 5.8679C9.2906 5.71452 9.62603 5.48974 9.90854 5.20634C10.191 4.92295 10.415 4.58656 10.5678 4.21635C10.7205 3.84614 10.7989 3.44938 10.7985 3.04878C10.7985 2.24019 10.4781 1.46469 9.90761 0.892932C9.33714 0.321175 8.56337 0 7.7566 0C6.94982 0 6.17619 0.321175 5.60571 0.892932C5.03524 1.46469 4.71465 2.24019 4.71465 3.04878C4.71465 3.85761 5.03505 4.63336 5.60545 5.20555C6.17585 5.77774 6.94957 6.09955 7.7566 6.10027Z" fill="#FEB80A"/>
<path d="M15.0005 14.9919C14.9998 13.0668 14.2363 11.2209 12.8779 9.8599C11.5195 8.49894 9.67733 7.73442 7.7566 7.73442C5.83587 7.73442 3.99387 8.49894 2.63546 9.8599C1.27704 11.2209 0.513412 13.0668 0.512695 14.9919C0.512695 19.0027 15.0005 19.0027 15.0005 14.9919Z" fill="#FEB80A"/>
</svg>
