<svg width="23" height="22" viewBox="0 0 23 22" fill="none" xmlns="http://www.w3.org/2000/svg">
<path d="M11.25 21C16.7728 21 21.25 16.5228 21.25 11C21.25 5.47715 16.7728 1 11.25 1C5.72715 1 1.25 5.47715 1.25 11C1.25 16.5228 5.72715 21 11.25 21Z" stroke="#0F0F0F" stroke-width="1.6" stroke-linecap="round" stroke-linejoin="round"/>
<path d="M8.75 7.96533C8.75 7.48805 8.75 7.24941 8.84974 7.11618C8.93666 7.00007 9.06971 6.92744 9.21438 6.9171C9.38038 6.90525 9.58112 7.03429 9.98261 7.29239L14.7032 10.3271C15.0516 10.551 15.2258 10.663 15.2859 10.8054C15.3385 10.9298 15.3385 11.0702 15.2859 11.1946C15.2258 11.337 15.0516 11.449 14.7032 11.6729L9.98261 14.7076C9.58112 14.9657 9.38038 15.0948 9.21438 15.0829C9.06971 15.0726 8.93666 14.9999 8.84974 14.8838C8.75 14.7506 8.75 14.512 8.75 14.0347V7.96533Z" stroke="#0F0F0F" stroke-width="1.6" stroke-linecap="round" stroke-linejoin="round"/>
</svg>
